# xmcd CD database file
#
# Track frame offsets:
#	151
#	14820
#	28253
#	48364
#	61603
#	81084
#	92383
#	100280
#	108135
#	115948
#	121973
#	131142
#	139691
#	153294
#	160457
#	170388
#	191101
#	195970
#	203883
#	212616
#	225705
#	231216
#	243541
#	253552
#	258377
#	260390
#	263219
#	268968
#	272789
#	277030
#	288715
#	296114
#	302443
#	316138
#	330799
#
# Disc length: 4472 seconds
#
# Revision: 0
# Processed by: cddbd v1.4PL0 Copyright (c) Steve Scherf et al.
# Submitted via: CDex 1.51
#
DISCID=02117623
DTITLE=SF School Orff Ensembles - Bags' Groove
DYEAR=1900
DGENRE=Jazz
TTITLE0=Bags' Groove
TTITLE1=Just a Gigolo
TTITLE2=I Got Rhythm Medley
TTITLE3=Skj
TTITLE4=Let's Call the Whole Thing Off
TTITLE5=Soup, Soup
TTITLE6=Also Sprach Zarathustra
TTITLE7=Alla Turca
TTITLE8=Dido's Lament
TTITLE9=Sine Musica
TTITLE10=Underworld Music
TTITLE11=Can Can
TTITLE12=Rigadon Bressan
TTITLE13=Gathering Peascods
TTITLE14=New Years Processional
TTITLE15=Fatou Yo
TTITLE16=La Culebra Speech Pieces
TTITLE17=La Culebra
TTITLE18=Para Ti
TTITLE19=Miserlou
TTITLE20=Tsifte Teli
TTITLE21=Lullaby
TTITLE22=Derkpee
TTITLE23=Oh Shenandoah
TTITLE24=The Turkey and the Duck
TTITLE25=Love Somebody
TTITLE26=London Bridge
TTITLE27=Pavo Pavito
TTITLE28=Uno Dos Tres Cuatro
TTITLE29=Jeremiah Obedian
TTITLE30=Blue Bells
TTITLE31=Five Eggs
TTITLE32=The Lion and the Unicorn
TTITLE33=All My Life
TTITLE34=Somewhere Over the Rainbow
EXTD=
EXTT0=
EXTT1=
EXTT2=
EXTT3=
EXTT4=
EXTT5=
EXTT6=
EXTT7=
EXTT8=
EXTT9=
EXTT10=
EXTT11=
EXTT12=
EXTT13=
EXTT14=
EXTT15=
EXTT16=
EXTT17=
EXTT18=
EXTT19=
EXTT20=
EXTT21=
EXTT22=
EXTT23=
EXTT24=
EXTT25=
EXTT26=
EXTT27=
EXTT28=
EXTT29=
EXTT30=
EXTT31=
EXTT32=
EXTT33=
EXTT34=
PLAYORDER=
